<svg width="51" height="48" viewBox="0 0 51 48" fill="none" xmlns="http://www.w3.org/2000/svg">
<path d="M45.9048 22.9125C45.9048 35.5667 35.6465 45.825 22.9923 45.825C10.3381 45.825 0.079834 35.5667 0.079834 22.9125C0.079834 10.2583 10.3381 0 22.9923 0C35.6465 0 45.9048 10.2583 45.9048 22.9125ZM2.80272 22.9125C2.80272 34.0629 11.8419 43.1021 22.9923 43.1021C34.1427 43.1021 43.1819 34.0629 43.1819 22.9125C43.1819 11.7621 34.1427 2.72288 22.9923 2.72288C11.8419 2.72288 2.80272 11.7621 2.80272 22.9125Z" fill="#9E9E9E"/>
<path d="M47.9445 20.8048C47.9445 22.8325 46.3007 24.4762 44.273 24.4762C42.2453 24.4762 40.6016 22.8325 40.6016 20.8048C40.6016 18.7771 42.2453 17.1334 44.273 17.1334C46.3007 17.1334 47.9445 18.7771 47.9445 20.8048Z" fill="#4CAF50"/>
<path d="M12.9978 6.25504C12.9978 8.28272 11.3541 9.92647 9.32641 9.92647C7.29873 9.92647 5.65497 8.28272 5.65497 6.25504C5.65497 4.22736 7.29873 2.5836 9.32641 2.5836C11.3541 2.5836 12.9978 4.22736 12.9978 6.25504Z" fill="#4CAF50"/>
<path d="M18.709 42.1535C18.709 44.1812 17.0652 45.825 15.0375 45.825C13.0099 45.825 11.3661 44.1812 11.3661 42.1535C11.3661 40.1258 13.0099 38.4821 15.0375 38.4821C17.0652 38.4821 18.709 40.1258 18.709 42.1535Z" fill="#4CAF50"/>
<path d="M12.9975 6.25188C12.9975 8.27956 11.3538 9.92332 9.3261 9.92332C7.29843 9.92332 5.65467 8.27956 5.65467 6.25188C5.65467 4.22421 7.29843 2.58045 9.3261 2.58045C11.3538 2.58045 12.9975 4.22421 12.9975 6.25188Z" fill="white"/>
<path fill-rule="evenodd" clip-rule="evenodd" d="M15.1732 6.25188C15.1732 9.48115 12.5554 12.099 9.3261 12.099C6.09684 12.099 3.479 9.48115 3.479 6.25188C3.479 3.02262 6.09684 0.404785 9.3261 0.404785C12.5554 0.404785 15.1732 3.02262 15.1732 6.25188ZM9.3261 9.92332C11.3538 9.92332 12.9975 8.27956 12.9975 6.25188C12.9975 4.22421 11.3538 2.58045 9.3261 2.58045C7.29843 2.58045 5.65467 4.22421 5.65467 6.25188C5.65467 8.27956 7.29843 9.92332 9.3261 9.92332Z" fill="#191919"/>
<path d="M18.7092 42.1528C18.7092 44.1804 17.0654 45.8242 15.0378 45.8242C13.0101 45.8242 11.3663 44.1804 11.3663 42.1528C11.3663 40.1251 13.0101 38.4813 15.0378 38.4813C17.0654 38.4813 18.7092 40.1251 18.7092 42.1528Z" fill="white"/>
<path fill-rule="evenodd" clip-rule="evenodd" d="M20.8849 42.1528C20.8849 45.382 18.267 47.9999 15.0378 47.9999C11.8085 47.9999 9.19067 45.382 9.19067 42.1528C9.19067 38.9235 11.8085 36.3057 15.0378 36.3057C18.267 36.3057 20.8849 38.9235 20.8849 42.1528ZM15.0378 45.8242C17.0654 45.8242 18.7092 44.1804 18.7092 42.1528C18.7092 40.1251 17.0654 38.4813 15.0378 38.4813C13.0101 38.4813 11.3663 40.1251 11.3663 42.1528C11.3663 44.1804 13.0101 45.8242 15.0378 45.8242Z" fill="#191919"/>
<path d="M47.9448 20.8032C47.9448 22.8308 46.301 24.4746 44.2734 24.4746C42.2457 24.4746 40.6019 22.8308 40.6019 20.8032C40.6019 18.7755 42.2457 17.1317 44.2734 17.1317C46.301 17.1317 47.9448 18.7755 47.9448 20.8032Z" fill="white"/>
<path fill-rule="evenodd" clip-rule="evenodd" d="M50.1205 20.8032C50.1205 24.0324 47.5026 26.6503 44.2734 26.6503C41.0441 26.6503 38.4263 24.0324 38.4263 20.8032C38.4263 17.5739 41.0441 14.9561 44.2734 14.9561C47.5026 14.9561 50.1205 17.5739 50.1205 20.8032ZM44.2734 24.4746C46.301 24.4746 47.9448 22.8308 47.9448 20.8032C47.9448 18.7755 46.301 17.1317 44.2734 17.1317C42.2457 17.1317 40.6019 18.7755 40.6019 20.8032C40.6019 22.8308 42.2457 24.4746 44.2734 24.4746Z" fill="#191919"/>
<path d="M16.1302 21.4157L12.8621 14.0083H14.008L17.0109 20.8443H16.353L19.3771 14.0083H20.4381L17.1806 21.4157H16.1302Z" fill="white"/>
<path d="M21.0537 21.4157V14.0083H22.1148V21.4157H21.0537Z" fill="white"/>
<path d="M23.8119 17.2041H27.6318V18.1036H23.8119V17.2041ZM23.9074 20.4951H28.2366V21.4157H22.8463V14.0083H28.088V14.9289H23.9074V20.4951Z" fill="white"/>
<path d="M31.4296 21.4157V14.9289H28.883V14.0083H35.0266V14.9289H32.4801V21.4157H31.4296Z" fill="white"/>
<path d="M13.9868 31.7369V24.3295H16.8835C17.5343 24.3295 18.0896 24.4318 18.5494 24.6363C19.0092 24.8409 19.3629 25.1372 19.6105 25.5252C19.8581 25.9132 19.9819 26.3753 19.9819 26.9115C19.9819 27.4476 19.8581 27.9097 19.6105 28.2977C19.3629 28.6787 19.0092 28.975 18.5494 29.1866C18.0896 29.3912 17.5343 29.4935 16.8835 29.4935H14.5704L15.0479 28.9962V31.7369H13.9868ZM15.0479 29.102L14.5704 28.5729H16.8517C17.5308 28.5729 18.0436 28.4282 18.3903 28.139C18.7439 27.8498 18.9208 27.4406 18.9208 26.9115C18.9208 26.3824 18.7439 25.9732 18.3903 25.684C18.0436 25.3947 17.5308 25.2501 16.8517 25.2501H14.5704L15.0479 24.721V29.102Z" fill="white"/>
<path d="M24.5 31.8216C23.9341 31.8216 23.4071 31.7263 22.919 31.5358C22.4379 31.3454 22.0206 31.0808 21.6669 30.7422C21.3132 30.3965 21.0373 29.9944 20.8393 29.5358C20.6412 29.0773 20.5422 28.5764 20.5422 28.0332C20.5422 27.49 20.6412 26.9891 20.8393 26.5305C21.0373 26.072 21.3132 25.6734 21.6669 25.3348C22.0206 24.9891 22.4379 24.721 22.919 24.5305C23.4 24.34 23.927 24.2448 24.5 24.2448C25.0659 24.2448 25.5858 24.34 26.0597 24.5305C26.5408 24.7139 26.9581 24.9785 27.3118 25.3242C27.6726 25.6628 27.9485 26.0614 28.1394 26.5199C28.3375 26.9785 28.4365 27.4829 28.4365 28.0332C28.4365 28.5835 28.3375 29.0879 28.1394 29.5464C27.9485 30.005 27.6726 30.4071 27.3118 30.7528C26.9581 31.0914 26.5408 31.356 26.0597 31.5464C25.5858 31.7299 25.0659 31.8216 24.5 31.8216ZM24.5 30.8798C24.9102 30.8798 25.2887 30.8092 25.6353 30.6681C25.989 30.527 26.2932 30.3295 26.5478 30.0755C26.8096 29.8145 27.0112 29.5111 27.1526 29.1655C27.3012 28.8198 27.3755 28.4424 27.3755 28.0332C27.3755 27.624 27.3012 27.2466 27.1526 26.9009C27.0112 26.5552 26.8096 26.2554 26.5478 26.0014C26.2932 25.7404 25.989 25.5393 25.6353 25.3982C25.2887 25.2572 24.9102 25.1866 24.5 25.1866C24.0826 25.1866 23.6971 25.2572 23.3434 25.3982C22.9968 25.5393 22.6926 25.7404 22.4309 26.0014C22.1691 26.2554 21.964 26.5552 21.8154 26.9009C21.674 27.2466 21.6032 27.624 21.6032 28.0332C21.6032 28.4424 21.674 28.8198 21.8154 29.1655C21.964 29.5111 22.1691 29.8145 22.4309 30.0755C22.6926 30.3295 22.9968 30.527 23.3434 30.6681C23.6971 30.8092 24.0826 30.8798 24.5 30.8798Z" fill="white"/>
<path d="M30.6006 31.7369V25.2501H28.0541V24.3295H34.1977V25.2501H31.6511V31.7369H30.6006Z" fill="white"/>
</svg>
